<?xml version="1.0" encoding="UTF-8"?>
<svg xmlns="http://www.w3.org/2000/svg" xmlns:xlink="http://www.w3.org/1999/xlink" width="30px" height="30px" viewBox="0 0 30 30" version="1.1">
<g id="surface1">
<path style=" stroke:none;fill-rule:nonzero;fill: #f0eeee;fill-opacity:1;" d="M 12.75 10.660156 L 12.75 13.515625 L 10.46875 13.515625 L 10.46875 16.933594 L 12.75 16.933594 L 12.75 24.921875 L 16.171875 24.921875 L 16.171875 16.9375 L 19.59375 16.9375 L 19.59375 13.519531 L 16.171875 13.519531 L 16.171875 11.234375 C 16.171875 10.550781 16.628906 10.09375 17.3125 10.09375 L 19.597656 10.09375 L 19.597656 6.671875 L 16.738281 6.671875 C 14.574219 6.671875 12.75 8.496094 12.75 10.660156 Z M 12.75 10.660156 "/>
<path style=" stroke:none;fill-rule:nonzero;fill: #f0eeee;fill-opacity:1;" d="M 15 0.300781 C 6.914062 0.300781 0.300781 6.914062 0.300781 15 C 0.300781 23.082031 6.914062 29.699219 15 29.699219 C 23.085938 29.699219 29.699219 23.085938 29.699219 15 C 29.699219 6.914062 23.085938 0.300781 15 0.300781 Z M 15 28.476562 C 7.585938 28.476562 1.523438 22.410156 1.523438 15 C 1.523438 7.589844 7.585938 1.523438 15 1.523438 C 22.414062 1.523438 28.476562 7.589844 28.476562 15 C 28.476562 22.410156 22.414062 28.476562 15 28.476562 Z M 15 28.476562 "/>
</g>
</svg>
