<?xml version="1.0" encoding="UTF-8"?>
<svg xmlns="http://www.w3.org/2000/svg" xmlns:xlink="http://www.w3.org/1999/xlink" width="30px" height="30px" viewBox="0 0 30 30" version="1.1">
<g id="surface1">
<path style=" stroke:none;fill-rule:nonzero;fill: #f0eeee;fill-opacity:1;" d="M 15 0.300781 C 7.089844 0.300781 0.679688 6.882812 0.679688 15 C 0.679688 23.117188 7.09375 29.699219 15 29.699219 C 22.910156 29.699219 29.320312 23.117188 29.320312 15 C 29.320312 6.882812 22.910156 0.300781 15 0.300781 Z M 19.300781 28.203125 C 18.609375 28.339844 18.367188 27.90625 18.367188 27.535156 C 18.367188 27.078125 18.382812 25.578125 18.382812 23.71875 C 18.382812 22.417969 17.945312 21.570312 17.460938 21.136719 C 20.484375 20.796875 23.65625 19.617188 23.65625 14.273438 C 23.65625 12.757812 23.128906 11.511719 22.261719 10.539062 C 22.398438 10.1875 22.867188 8.773438 22.125 6.859375 C 22.125 6.859375 20.988281 6.484375 18.394531 8.285156 C 17.3125 7.976562 16.152344 7.820312 15 7.816406 C 13.84375 7.820312 12.683594 7.972656 11.605469 8.285156 C 9.011719 6.484375 7.871094 6.859375 7.871094 6.859375 C 7.132812 8.773438 7.597656 10.1875 7.738281 10.539062 C 6.871094 11.511719 6.34375 12.753906 6.34375 14.273438 C 6.34375 19.605469 9.511719 20.800781 12.523438 21.148438 C 12.136719 21.496094 11.785156 22.109375 11.664062 23.011719 C 10.890625 23.363281 8.925781 23.980469 7.714844 21.851562 C 7.714844 21.851562 7 20.515625 5.636719 20.417969 C 5.636719 20.417969 4.3125 20.398438 5.542969 21.265625 C 5.542969 21.265625 6.433594 21.691406 7.050781 23.296875 C 7.050781 23.296875 7.847656 26.003906 11.621094 25.164062 C 11.628906 26.324219 11.640625 27.199219 11.640625 27.53125 C 11.640625 27.898438 11.394531 28.328125 10.714844 28.199219 C 5.320312 26.359375 1.433594 21.148438 1.433594 15 C 1.429688 7.320312 7.507812 1.09375 15 1.09375 C 22.492188 1.09375 28.570312 7.320312 28.570312 15.007812 C 28.570312 21.148438 24.683594 26.359375 19.300781 28.203125 Z M 19.300781 28.203125 "/>
</g>
</svg>
