<?xml version="1.0" encoding="UTF-8"?>
<svg xmlns="http://www.w3.org/2000/svg" xmlns:xlink="http://www.w3.org/1999/xlink" width="30px" height="30px" viewBox="0 0 30 30" version="1.1">
<g id="surface1">
<path style=" stroke:none;fill-rule:nonzero;fill:#f0eeee;fill-opacity:1;" d="M 15 0.351562 C 6.925781 0.351562 0.351562 6.925781 0.351562 15 C 0.351562 23.074219 6.925781 29.648438 15 29.648438 C 23.074219 29.648438 29.648438 23.078125 29.648438 15 C 29.648438 6.921875 23.078125 0.351562 15 0.351562 Z M 14.988281 27.710938 C 7.90625 27.710938 2.15625 21.96875 2.15625 14.875 C 2.15625 7.785156 7.898438 2.042969 14.988281 2.042969 C 22.078125 2.042969 27.820312 7.785156 27.820312 14.875 C 27.820312 21.96875 22.070312 27.710938 14.988281 27.710938 Z M 14.988281 27.710938 "/>
<path style=" stroke:none;fill-rule:nonzero;fill: #f0eeee;fill-opacity:1;" d="M 21.023438 10.140625 C 21.023438 10.742188 20.539062 11.226562 19.9375 11.226562 C 19.339844 11.226562 18.855469 10.742188 18.855469 10.140625 C 18.855469 9.542969 19.339844 9.058594 19.9375 9.058594 C 20.539062 9.058594 21.023438 9.542969 21.023438 10.140625 Z M 21.023438 10.140625 "/>
<path style=" stroke:none;fill-rule:nonzero;fill: #f0eeee;fill-opacity:1;" d="M 15.117188 10.445312 C 12.601562 10.445312 10.5625 12.488281 10.5625 15 C 10.5625 17.515625 12.605469 19.554688 15.117188 19.554688 C 17.632812 19.554688 19.671875 17.515625 19.671875 15 C 19.671875 12.484375 17.632812 10.445312 15.117188 10.445312 Z M 15.117188 17.917969 C 13.507812 17.917969 12.199219 16.609375 12.199219 15 C 12.199219 13.390625 13.507812 12.082031 15.117188 12.082031 C 16.726562 12.082031 18.035156 13.390625 18.035156 15 C 18.035156 16.609375 16.726562 17.914062 15.117188 17.917969 Z M 15.117188 17.917969 "/>
<path style=" stroke:none;fill-rule:nonzero;fill: #f0eeee;fill-opacity:1;" d="M 24.304688 11.214844 C 24.304688 8.152344 21.820312 5.660156 18.75 5.660156 L 11.425781 5.660156 C 8.359375 5.660156 5.871094 8.144531 5.871094 11.214844 L 5.871094 18.546875 C 5.871094 21.609375 8.355469 24.101562 11.425781 24.101562 L 18.757812 24.101562 C 21.820312 24.101562 24.3125 21.617188 24.3125 18.546875 Z M 22.570312 18.546875 C 22.570312 20.648438 20.859375 22.359375 18.757812 22.359375 L 11.425781 22.359375 C 9.320312 22.359375 7.609375 20.65625 7.609375 18.546875 L 7.609375 11.214844 C 7.609375 9.105469 9.316406 7.402344 11.425781 7.402344 L 18.757812 7.402344 C 20.867188 7.402344 22.570312 9.105469 22.570312 11.214844 Z M 22.570312 18.546875 "/>
</g>
</svg>
