<?xml version="1.0" encoding="UTF-8"?>
<svg xmlns="http://www.w3.org/2000/svg" xmlns:xlink="http://www.w3.org/1999/xlink" width="150px" height="56px" viewBox="0 0 151 56" version="1.1">
<defs>
<clipPath id="clip1">
  <path d="M 98 3 L 131 3 L 131 34 L 98 34 Z M 98 3 "/>
</clipPath>
<clipPath id="clip2">
  <path d="M 128.507812 8.171875 C 123.816406 1.9375 113.867188 1.515625 106.289062 7.230469 C 98.714844 12.941406 96.378906 22.625 101.074219 28.855469 C 105.765625 35.085938 115.714844 35.507812 123.289062 29.796875 C 130.867188 24.085938 133.203125 14.402344 128.507812 8.171875 Z M 128.507812 8.171875 "/>
</clipPath>
<clipPath id="clip3">
  <path d="M 81.75 15.421875 L 120.902344 -14.09375 L 147.992188 21.871094 L 108.84375 51.386719 Z M 81.75 15.421875 "/>
</clipPath>
<clipPath id="clip4">
  <path d="M 128.507812 8.171875 C 123.816406 1.9375 113.867188 1.515625 106.289062 7.230469 C 98.714844 12.941406 96.378906 22.625 101.074219 28.855469 C 105.765625 35.085938 115.714844 35.507812 123.289062 29.796875 C 130.867188 24.085938 133.203125 14.402344 128.507812 8.171875 Z M 128.507812 8.171875 "/>
</clipPath>
<clipPath id="clip5">
  <path d="M 92.652344 17.824219 L 120.066406 -2.84375 L 137.085938 19.746094 L 109.667969 40.414062 Z M 92.652344 17.824219 "/>
</clipPath>
<clipPath id="clip6">
  <path d="M 98 3 L 131 3 L 131 34 L 98 34 Z M 98 3 "/>
</clipPath>
<clipPath id="clip7">
  <path d="M 128.507812 8.171875 C 123.816406 1.9375 113.867188 1.515625 106.289062 7.230469 C 98.714844 12.941406 96.378906 22.625 101.074219 28.855469 C 105.765625 35.085938 115.714844 35.507812 123.289062 29.796875 C 130.867188 24.085938 133.203125 14.402344 128.507812 8.171875 Z M 128.507812 8.171875 "/>
</clipPath>
<clipPath id="clip8">
  <path d="M 81.75 15.421875 L 120.902344 -14.09375 L 147.992188 21.871094 L 108.84375 51.386719 Z M 81.75 15.421875 "/>
</clipPath>
<clipPath id="clip9">
  <path d="M 128.507812 8.171875 C 123.816406 1.9375 113.867188 1.515625 106.289062 7.230469 C 98.714844 12.941406 96.378906 22.625 101.074219 28.855469 C 105.765625 35.085938 115.714844 35.507812 123.289062 29.796875 C 130.867188 24.085938 133.203125 14.402344 128.507812 8.171875 Z M 128.507812 8.171875 "/>
</clipPath>
<clipPath id="clip10">
  <path d="M 96.558594 31.390625 L 106.023438 -1.621094 L 133.199219 6.175781 L 123.738281 39.1875 Z M 96.558594 31.390625 "/>
</clipPath>
<clipPath id="clip11">
  <path d="M 98 3 L 131 3 L 131 34 L 98 34 Z M 98 3 "/>
</clipPath>
<clipPath id="clip12">
  <path d="M 128.507812 8.171875 C 123.816406 1.9375 113.867188 1.515625 106.289062 7.230469 C 98.714844 12.941406 96.378906 22.625 101.074219 28.855469 C 105.765625 35.085938 115.714844 35.507812 123.289062 29.796875 C 130.867188 24.085938 133.203125 14.402344 128.507812 8.171875 Z M 128.507812 8.171875 "/>
</clipPath>
<clipPath id="clip13">
  <path d="M 81.75 15.421875 L 120.902344 -14.09375 L 147.992188 21.871094 L 108.84375 51.386719 Z M 81.75 15.421875 "/>
</clipPath>
<clipPath id="clip14">
  <path d="M 128.507812 8.171875 C 123.816406 1.9375 113.867188 1.515625 106.289062 7.230469 C 98.714844 12.941406 96.378906 22.625 101.074219 28.855469 C 105.765625 35.085938 115.714844 35.507812 123.289062 29.796875 C 130.867188 24.085938 133.203125 14.402344 128.507812 8.171875 Z M 128.507812 8.171875 "/>
</clipPath>
<clipPath id="clip15">
  <path d="M 92.652344 17.824219 L 120.066406 -2.84375 L 137.085938 19.746094 L 109.667969 40.414062 Z M 92.652344 17.824219 "/>
</clipPath>
<clipPath id="clip16">
  <path d="M 98 3 L 131 3 L 131 34 L 98 34 Z M 98 3 "/>
</clipPath>
<clipPath id="clip17">
  <path d="M 128.507812 8.171875 C 123.816406 1.9375 113.867188 1.515625 106.289062 7.230469 C 98.714844 12.941406 96.378906 22.625 101.074219 28.855469 C 105.765625 35.085938 115.714844 35.507812 123.289062 29.796875 C 130.867188 24.085938 133.203125 14.402344 128.507812 8.171875 Z M 128.507812 8.171875 "/>
</clipPath>
<clipPath id="clip18">
  <path d="M 81.75 15.421875 L 120.902344 -14.09375 L 147.992188 21.871094 L 108.84375 51.386719 Z M 81.75 15.421875 "/>
</clipPath>
<clipPath id="clip19">
  <path d="M 128.507812 8.171875 C 123.816406 1.9375 113.867188 1.515625 106.289062 7.230469 C 98.714844 12.941406 96.378906 22.625 101.074219 28.855469 C 105.765625 35.085938 115.714844 35.507812 123.289062 29.796875 C 130.867188 24.085938 133.203125 14.402344 128.507812 8.171875 Z M 128.507812 8.171875 "/>
</clipPath>
<clipPath id="clip20">
  <path d="M 96.558594 31.390625 L 106.023438 -1.621094 L 133.199219 6.175781 L 123.738281 39.1875 Z M 96.558594 31.390625 "/>
</clipPath>
<clipPath id="clip21">
  <path d="M 98 3 L 131 3 L 131 34 L 98 34 Z M 98 3 "/>
</clipPath>
<clipPath id="clip22">
  <path d="M 128.507812 8.171875 C 123.816406 1.9375 113.867188 1.515625 106.289062 7.230469 C 98.714844 12.941406 96.378906 22.625 101.074219 28.855469 C 105.765625 35.085938 115.714844 35.507812 123.289062 29.796875 C 130.867188 24.085938 133.203125 14.402344 128.507812 8.171875 Z M 128.507812 8.171875 "/>
</clipPath>
<clipPath id="clip23">
  <path d="M 81.75 15.421875 L 120.902344 -14.09375 L 147.992188 21.871094 L 108.84375 51.386719 Z M 81.75 15.421875 "/>
</clipPath>
<clipPath id="clip24">
  <path d="M 128.507812 8.171875 C 123.816406 1.9375 113.867188 1.515625 106.289062 7.230469 C 98.714844 12.941406 96.378906 22.625 101.074219 28.855469 C 105.765625 35.085938 115.714844 35.507812 123.289062 29.796875 C 130.867188 24.085938 133.203125 14.402344 128.507812 8.171875 Z M 128.507812 8.171875 "/>
</clipPath>
<clipPath id="clip25">
  <path d="M 98 3 L 131 3 L 131 34 L 98 34 Z M 98 3 "/>
</clipPath>
<clipPath id="clip26">
  <path d="M 128.507812 8.171875 C 123.816406 1.9375 113.867188 1.515625 106.289062 7.230469 C 98.714844 12.941406 96.378906 22.625 101.074219 28.855469 C 105.765625 35.085938 115.714844 35.507812 123.289062 29.796875 C 130.867188 24.085938 133.203125 14.402344 128.507812 8.171875 Z M 128.507812 8.171875 "/>
</clipPath>
<clipPath id="clip27">
  <path d="M 81.75 15.421875 L 120.902344 -14.09375 L 147.992188 21.871094 L 108.84375 51.386719 Z M 81.75 15.421875 "/>
</clipPath>
<clipPath id="clip28">
  <path d="M 106 9 L 124 9 L 124 28 L 106 28 Z M 106 9 "/>
</clipPath>
<clipPath id="clip29">
  <path d="M 128.507812 8.171875 C 123.816406 1.9375 113.867188 1.515625 106.289062 7.230469 C 98.714844 12.941406 96.378906 22.625 101.074219 28.855469 C 105.765625 35.085938 115.714844 35.507812 123.289062 29.796875 C 130.867188 24.085938 133.203125 14.402344 128.507812 8.171875 Z M 128.507812 8.171875 "/>
</clipPath>
<clipPath id="clip30">
  <path d="M 81.75 15.421875 L 120.902344 -14.09375 L 147.992188 21.871094 L 108.84375 51.386719 Z M 81.75 15.421875 "/>
</clipPath>
</defs>
<g id="surface1">
<path style=" stroke:none;fill-rule:nonzero;fill:rgb(0%,0%,0%);fill-opacity:1;" d="M 77.953125 18.546875 L 85.125 18.085938 C 85.289062 19.257812 85.589844 20.128906 86.078125 20.757812 C 86.871094 21.738281 87.960938 22.230469 89.40625 22.230469 C 90.46875 22.230469 91.3125 21.984375 91.886719 21.46875 C 92.433594 21.058594 92.757812 20.402344 92.757812 19.722656 C 92.757812 19.066406 92.460938 18.4375 91.941406 18.03125 C 91.394531 17.539062 90.113281 17.046875 88.097656 16.613281 C 84.796875 15.875 82.425781 14.894531 81.035156 13.636719 C 79.644531 12.464844 78.855469 10.746094 78.910156 8.917969 C 78.910156 7.664062 79.289062 6.410156 80 5.375 C 80.816406 4.199219 81.933594 3.273438 83.269531 2.753906 C 84.714844 2.128906 86.734375 1.800781 89.269531 1.800781 C 92.378906 1.800781 94.75 2.375 96.386719 3.546875 C 98.019531 4.691406 99.003906 6.546875 99.304688 9.082031 L 92.214844 9.492188 C 92.023438 8.402344 91.640625 7.609375 91.015625 7.09375 C 90.386719 6.574219 89.570312 6.328125 88.503906 6.328125 C 87.632812 6.328125 86.980469 6.519531 86.542969 6.875 C 86.132812 7.199219 85.859375 7.691406 85.886719 8.238281 C 85.886719 8.648438 86.105469 9.027344 86.433594 9.273438 C 86.789062 9.601562 87.632812 9.902344 88.96875 10.175781 C 92.269531 10.882812 94.613281 11.59375 96.058594 12.328125 C 97.503906 13.066406 98.539062 13.964844 99.167969 15.03125 C 99.820312 16.121094 100.148438 17.375 100.121094 18.65625 C 100.121094 20.183594 99.683594 21.710938 98.8125 22.996094 C 97.914062 24.332031 96.65625 25.367188 95.1875 25.996094 C 93.632812 26.675781 91.667969 27.03125 89.324219 27.03125 C 85.179688 27.03125 82.316406 26.242188 80.707031 24.632812 C 79.097656 23.023438 78.144531 21.003906 77.953125 18.546875 Z M 1.855469 26.621094 L 1.855469 2.238281 L 14.425781 2.238281 C 16.742188 2.238281 18.542969 2.425781 19.769531 2.835938 C 20.96875 3.21875 22.03125 4.007812 22.742188 5.074219 C 23.53125 6.246094 23.914062 7.609375 23.886719 9.027344 C 23.96875 11.429688 22.742188 13.71875 20.640625 14.921875 C 19.824219 15.382812 18.921875 15.710938 17.996094 15.875 C 18.679688 16.066406 19.359375 16.394531 19.960938 16.777344 C 20.421875 17.15625 20.804688 17.59375 21.160156 18.058594 C 21.570312 18.519531 21.921875 19.039062 22.222656 19.585938 L 25.875 26.648438 L 17.316406 26.648438 L 13.28125 19.148438 C 12.761719 18.195312 12.324219 17.566406 11.917969 17.265625 C 11.371094 16.882812 10.714844 16.695312 10.0625 16.695312 L 9.40625 16.695312 L 9.40625 26.59375 L 1.855469 26.59375 Z M 9.40625 12.109375 L 12.597656 12.109375 C 13.28125 12.054688 13.933594 11.949219 14.589844 11.785156 C 15.078125 11.703125 15.515625 11.429688 15.816406 11.019531 C 16.550781 10.039062 16.441406 8.648438 15.542969 7.800781 C 15.050781 7.390625 14.097656 7.175781 12.734375 7.175781 L 9.40625 7.175781 Z M 0.136719 47.515625 L 7.308594 47.054688 C 7.472656 48.226562 7.773438 49.097656 8.261719 49.726562 C 9.027344 50.707031 10.144531 51.226562 11.589844 51.226562 C 12.652344 51.226562 13.496094 50.980469 14.070312 50.460938 C 14.617188 50.027344 14.941406 49.398438 14.941406 48.71875 C 14.941406 48.0625 14.644531 47.433594 14.125 47.027344 C 13.578125 46.535156 12.296875 46.042969 10.253906 45.605469 C 6.953125 44.871094 4.582031 43.890625 3.191406 42.632812 C 1.800781 41.460938 1.011719 39.742188 1.066406 37.914062 C 1.066406 36.660156 1.445312 35.40625 2.15625 34.371094 C 2.972656 33.195312 4.089844 32.269531 5.425781 31.75 C 6.871094 31.125 8.890625 30.796875 11.425781 30.796875 C 14.535156 30.796875 16.90625 31.367188 18.542969 32.542969 C 20.179688 33.714844 21.132812 35.542969 21.433594 38.078125 L 14.34375 38.488281 C 14.152344 37.398438 13.769531 36.605469 13.144531 36.085938 C 12.542969 35.570312 11.699219 35.324219 10.636719 35.351562 C 9.761719 35.351562 9.109375 35.542969 8.671875 35.925781 C 8.234375 36.25 7.988281 36.742188 8.015625 37.289062 C 8.015625 37.695312 8.234375 38.078125 8.5625 38.324219 C 8.917969 38.652344 9.761719 38.953125 11.097656 39.222656 C 14.398438 39.933594 16.742188 40.644531 18.1875 41.378906 C 19.632812 42.117188 20.667969 43.015625 21.296875 44.078125 C 21.949219 45.171875 22.277344 46.425781 22.277344 47.679688 C 22.277344 49.207031 21.8125 50.707031 20.96875 51.992188 C 20.070312 53.328125 18.816406 54.363281 17.34375 54.992188 C 15.789062 55.671875 13.824219 56.027344 11.480469 56.027344 C 7.335938 56.027344 4.472656 55.234375 2.863281 53.625 C 1.253906 51.992188 0.355469 49.972656 0.136719 47.515625 Z M 0.136719 47.515625 "/>
<path style=" stroke:none;fill-rule:nonzero;fill:rgb(0%,0%,0%);fill-opacity:1;" d="M 36.402344 45.605469 L 43 47.597656 C 42.644531 49.261719 41.910156 50.84375 40.898438 52.234375 C 39.972656 53.464844 38.746094 54.417969 37.355469 55.046875 C 35.9375 55.671875 34.136719 56 31.957031 56 C 29.3125 56 27.128906 55.617188 25.46875 54.855469 C 23.777344 54.089844 22.332031 52.726562 21.105469 50.789062 C 19.878906 48.851562 19.277344 46.371094 19.277344 43.34375 C 19.277344 39.304688 20.339844 36.195312 22.496094 34.042969 C 24.648438 31.886719 27.675781 30.796875 31.601562 30.796875 C 34.683594 30.796875 37.082031 31.421875 38.855469 32.652344 C 40.601562 33.90625 41.910156 35.816406 42.78125 38.378906 L 36.128906 39.851562 C 35.964844 39.277344 35.71875 38.707031 35.390625 38.214844 C 34.984375 37.640625 34.464844 37.207031 33.839844 36.878906 C 33.210938 36.550781 32.503906 36.414062 31.792969 36.414062 C 30.074219 36.414062 28.765625 37.097656 27.867188 38.488281 C 27.183594 39.496094 26.832031 41.105469 26.832031 43.289062 C 26.832031 45.988281 27.238281 47.84375 28.058594 48.851562 C 28.875 49.863281 30.019531 50.355469 31.519531 50.355469 C 32.964844 50.355469 34.054688 49.945312 34.792969 49.152344 C 35.527344 48.308594 36.074219 47.136719 36.402344 45.605469 Z M 51.804688 31.203125 L 59.332031 31.203125 L 59.332031 39.742188 L 67.566406 39.742188 L 67.566406 31.203125 L 75.144531 31.203125 L 75.144531 55.589844 L 67.566406 55.589844 L 67.566406 45.714844 L 59.332031 45.714844 L 59.332031 55.589844 L 51.804688 55.589844 Z M 51.804688 31.203125 "/>
<path style=" stroke:none;fill-rule:nonzero;fill:rgb(0%,0%,0%);fill-opacity:1;" d="M 74.109375 43.398438 C 74.109375 39.414062 75.226562 36.304688 77.4375 34.097656 C 79.644531 31.886719 82.753906 30.769531 86.707031 30.769531 C 90.769531 30.769531 93.878906 31.859375 96.085938 34.042969 C 98.292969 36.222656 99.382812 39.277344 99.382812 43.207031 C 99.382812 46.070312 98.894531 48.390625 97.941406 50.21875 C 97.011719 52.015625 95.566406 53.492188 93.796875 54.472656 C 91.96875 55.480469 89.707031 56 87.007812 56 C 84.253906 56 81.988281 55.5625 80.191406 54.691406 C 78.335938 53.761719 76.808594 52.316406 75.800781 50.542969 C 74.683594 48.636719 74.109375 46.261719 74.109375 43.398438 Z M 81.636719 43.425781 C 81.636719 45.878906 82.097656 47.652344 83 48.746094 C 83.898438 49.808594 85.152344 50.355469 86.734375 50.355469 C 88.34375 50.355469 89.597656 49.835938 90.496094 48.773438 C 91.394531 47.707031 91.832031 45.824219 91.832031 43.097656 C 91.832031 40.804688 91.367188 39.117188 90.441406 38.078125 C 89.515625 37.015625 88.261719 36.496094 86.679688 36.496094 C 85.289062 36.441406 83.953125 37.042969 83.023438 38.105469 C 82.097656 39.171875 81.636719 40.941406 81.636719 43.425781 Z M 107.101562 43.398438 C 107.101562 39.414062 108.21875 36.304688 110.425781 34.097656 C 112.636719 31.886719 115.746094 30.769531 119.699219 30.769531 C 123.761719 30.769531 126.894531 31.859375 129.078125 34.042969 C 131.257812 36.222656 132.375 39.277344 132.375 43.207031 C 132.375 46.070312 131.886719 48.390625 130.929688 50.21875 C 130.003906 52.015625 128.558594 53.492188 126.785156 54.472656 C 124.960938 55.480469 122.695312 56 119.996094 56 C 117.242188 56 114.980469 55.5625 113.179688 54.691406 C 111.328125 53.761719 109.800781 52.316406 108.792969 50.542969 C 107.671875 48.636719 107.101562 46.261719 107.101562 43.398438 Z M 114.625 43.425781 C 114.625 45.878906 115.089844 47.652344 115.988281 48.746094 C 116.890625 49.808594 118.144531 50.355469 119.726562 50.355469 C 121.332031 50.355469 122.585938 49.835938 123.488281 48.773438 C 124.386719 47.707031 124.824219 45.824219 124.824219 43.097656 C 124.824219 40.804688 124.359375 39.117188 123.433594 38.078125 C 122.507812 37.015625 121.25 36.496094 119.671875 36.496094 C 118.28125 36.441406 116.917969 37.042969 116.015625 38.105469 C 115.089844 39.171875 114.625 40.941406 114.625 43.425781 Z M 114.625 43.425781 "/>
<path style=" stroke:none;fill-rule:nonzero;fill:rgb(0%,0%,0%);fill-opacity:1;" d="M 131.585938 31.203125 L 139.109375 31.203125 L 139.109375 49.589844 L 150.863281 49.589844 L 150.863281 55.589844 L 131.558594 55.589844 L 131.558594 31.203125 Z M 131.585938 31.203125 "/>
<path style=" stroke:none;fill-rule:nonzero;fill:rgb(100%,100%,100%);fill-opacity:1;" d="M 128.507812 8.171875 C 123.816406 1.9375 113.867188 1.515625 106.289062 7.230469 C 98.714844 12.941406 96.378906 22.625 101.074219 28.855469 C 105.765625 35.085938 115.714844 35.507812 123.289062 29.796875 C 130.867188 24.085938 133.203125 14.402344 128.507812 8.171875 Z M 128.507812 8.171875 "/>
<g clip-path="url(#clip1)" clip-rule="nonzero">
<g clip-path="url(#clip2)" clip-rule="nonzero">
<path style=" stroke:none;fill-rule:nonzero;fill:rgb(100%,100%,100%);fill-opacity:1;" d="M 81.75 15.421875 L 120.902344 -14.09375 L 147.992188 21.871094 L 108.84375 51.386719 Z M 81.75 15.421875 "/>
<g clip-path="url(#clip3)" clip-rule="nonzero">
<path style=" stroke:none;fill-rule:nonzero;fill:rgb(100%,100%,100%);fill-opacity:1;" d="M 128.507812 8.171875 C 123.816406 1.9375 113.867188 1.515625 106.289062 7.230469 C 98.714844 12.941406 96.378906 22.625 101.074219 28.855469 C 105.765625 35.085938 115.714844 35.507812 123.289062 29.796875 C 130.867188 24.085938 133.203125 14.402344 128.507812 8.171875 Z M 128.507812 8.171875 "/>
<g clip-path="url(#clip4)" clip-rule="nonzero">
<path style=" stroke:none;fill-rule:nonzero;fill:rgb(100%,100%,100%);fill-opacity:1;" d="M 92.652344 17.824219 L 120.066406 -2.84375 L 137.085938 19.746094 L 109.667969 40.414062 Z M 92.652344 17.824219 "/>
<g clip-path="url(#clip5)" clip-rule="nonzero">
<path style="fill-rule:nonzero;fill:rgb(100%,100%,100%);fill-opacity:1;stroke-width:4;stroke-linecap:butt;stroke-linejoin:miter;stroke:rgb(0%,0%,0%);stroke-opacity:1;stroke-miterlimit:10;" d="M 483.494547 67.898399 C 483.508404 39.290072 455.297489 16.094242 420.491879 16.099253 C 385.706329 16.101449 357.498884 39.297177 357.505087 67.902689 C 357.49985 96.499578 385.710765 119.695408 420.496315 119.693213 C 455.293306 119.699639 483.500751 96.503911 483.494547 67.898399 Z M 483.494547 67.898399 " transform="matrix(0.217751,-0.164162,0.164093,0.217842,12.084873,72.752085)"/>
</g>
</g>
</g>
</g>
</g>
<g clip-path="url(#clip6)" clip-rule="nonzero">
<g clip-path="url(#clip7)" clip-rule="nonzero">
<g clip-path="url(#clip8)" clip-rule="nonzero">
<g clip-path="url(#clip9)" clip-rule="nonzero">
<g clip-path="url(#clip10)" clip-rule="nonzero">
<path style="fill:none;stroke-width:4;stroke-linecap:butt;stroke-linejoin:miter;stroke:rgb(0%,0%,0%);stroke-opacity:1;stroke-miterlimit:10;" d="M 357.798053 16.998572 L 483.695831 16.994721 L 483.707574 120.700412 L 357.798354 120.695641 Z M 357.798053 16.998572 " transform="matrix(0.217754,-0.164158,0.164089,0.217845,11.951249,72.856584)"/>
</g>
</g>
</g>
</g>
</g>
<g clip-path="url(#clip11)" clip-rule="nonzero">
<g clip-path="url(#clip12)" clip-rule="nonzero">
<g clip-path="url(#clip13)" clip-rule="nonzero">
<g clip-path="url(#clip14)" clip-rule="nonzero">
<path style="fill:none;stroke-width:4;stroke-linecap:butt;stroke-linejoin:miter;stroke:rgb(0%,0%,0%);stroke-opacity:1;stroke-miterlimit:10;" d="M 483.494547 67.898399 C 483.508404 39.290072 455.297489 16.094242 420.491879 16.099253 C 385.706329 16.101449 357.498884 39.297177 357.505087 67.902689 C 357.49985 96.499578 385.710765 119.695408 420.496315 119.693213 C 455.293306 119.699639 483.500751 96.503911 483.494547 67.898399 Z M 483.494547 67.898399 " transform="matrix(0.217751,-0.164162,0.164093,0.217842,12.084873,72.752085)"/>
<path style=" stroke:none;fill-rule:nonzero;fill:rgb(100%,100%,100%);fill-opacity:1;" d="M 92.652344 17.824219 L 120.066406 -2.84375 L 137.085938 19.746094 L 109.667969 40.414062 Z M 92.652344 17.824219 "/>
<g clip-path="url(#clip15)" clip-rule="nonzero">
<path style="fill-rule:nonzero;fill:rgb(100%,100%,100%);fill-opacity:1;stroke-width:4;stroke-linecap:butt;stroke-linejoin:miter;stroke:rgb(0%,0%,0%);stroke-opacity:1;stroke-miterlimit:10;" d="M 483.494547 67.898399 C 483.508404 39.290072 455.297489 16.094242 420.491879 16.099253 C 385.706329 16.101449 357.498884 39.297177 357.505087 67.902689 C 357.49985 96.499578 385.710765 119.695408 420.496315 119.693213 C 455.293306 119.699639 483.500751 96.503911 483.494547 67.898399 Z M 483.494547 67.898399 " transform="matrix(0.217751,-0.164162,0.164093,0.217842,12.084873,72.752085)"/>
</g>
</g>
</g>
</g>
</g>
<g clip-path="url(#clip16)" clip-rule="nonzero">
<g clip-path="url(#clip17)" clip-rule="nonzero">
<g clip-path="url(#clip18)" clip-rule="nonzero">
<g clip-path="url(#clip19)" clip-rule="nonzero">
<g clip-path="url(#clip20)" clip-rule="nonzero">
<path style="fill:none;stroke-width:4;stroke-linecap:butt;stroke-linejoin:miter;stroke:rgb(0%,0%,0%);stroke-opacity:1;stroke-miterlimit:10;" d="M 357.798053 16.998572 L 483.695831 16.994721 L 483.707574 120.700412 L 357.798354 120.695641 Z M 357.798053 16.998572 " transform="matrix(0.217754,-0.164158,0.164089,0.217845,11.951249,72.856584)"/>
</g>
</g>
</g>
</g>
</g>
<g clip-path="url(#clip21)" clip-rule="nonzero">
<g clip-path="url(#clip22)" clip-rule="nonzero">
<g clip-path="url(#clip23)" clip-rule="nonzero">
<g clip-path="url(#clip24)" clip-rule="nonzero">
<path style="fill:none;stroke-width:4;stroke-linecap:butt;stroke-linejoin:miter;stroke:rgb(0%,0%,0%);stroke-opacity:1;stroke-miterlimit:10;" d="M 330.899906 -14.203671 L 510.700657 -14.200027 L 510.697093 150.893152 L 330.907784 150.898131 Z M 330.899906 -14.203671 " transform="matrix(0.217751,-0.164162,0.164093,0.217842,12.027023,72.837165)"/>
</g>
</g>
</g>
</g>
<g clip-path="url(#clip25)" clip-rule="nonzero">
<g clip-path="url(#clip26)" clip-rule="nonzero">
<g clip-path="url(#clip27)" clip-rule="nonzero">
<path style="fill:none;stroke-width:4;stroke-linecap:butt;stroke-linejoin:miter;stroke:rgb(0%,0%,0%);stroke-opacity:1;stroke-miterlimit:10;" d="M 483.494547 67.898399 C 483.508404 39.290072 455.297489 16.094242 420.491879 16.099253 C 385.706329 16.101449 357.498884 39.297177 357.505087 67.902689 C 357.49985 96.499578 385.710765 119.695408 420.496315 119.693213 C 455.293306 119.699639 483.500751 96.503911 483.494547 67.898399 Z M 483.494547 67.898399 " transform="matrix(0.217751,-0.164162,0.164093,0.217842,12.084873,72.752085)"/>
</g>
</g>
</g>
<g clip-path="url(#clip28)" clip-rule="nonzero">
<g clip-path="url(#clip29)" clip-rule="nonzero">
<g clip-path="url(#clip30)" clip-rule="nonzero">
<path style=" stroke:none;fill-rule:nonzero;fill:rgb(0%,0%,0%);fill-opacity:1;" d="M 107.128906 16.722656 L 109.855469 14.8125 L 113.207031 19.585938 C 113.78125 20.347656 114.21875 21.167969 114.542969 22.066406 C 114.734375 22.75 114.679688 23.484375 114.40625 24.140625 C 114.054688 24.957031 113.480469 25.640625 112.71875 26.132812 C 111.816406 26.757812 111.054688 27.113281 110.398438 27.222656 C 109.773438 27.332031 109.117188 27.222656 108.519531 26.949219 C 107.863281 26.621094 107.292969 26.160156 106.855469 25.558594 L 109.199219 23.375 C 109.390625 23.675781 109.636719 23.949219 109.910156 24.167969 C 110.101562 24.304688 110.316406 24.386719 110.5625 24.386719 C 110.753906 24.386719 110.945312 24.304688 111.082031 24.195312 C 111.355469 24.03125 111.546875 23.703125 111.519531 23.375 C 111.4375 22.914062 111.246094 22.449219 110.945312 22.09375 Z M 115.308594 19.75 L 117.789062 17.785156 C 118.0625 18.113281 118.417969 18.359375 118.796875 18.492188 C 119.34375 18.65625 119.914062 18.546875 120.378906 18.195312 C 120.707031 17.976562 120.980469 17.675781 121.089844 17.292969 C 121.25 16.800781 120.980469 16.257812 120.488281 16.09375 C 120.40625 16.066406 120.324219 16.039062 120.242188 16.039062 C 119.914062 16.011719 119.34375 16.148438 118.496094 16.503906 C 117.109375 17.074219 116.015625 17.292969 115.199219 17.210938 C 114.40625 17.128906 113.671875 16.722656 113.234375 16.039062 C 112.910156 15.574219 112.746094 15.03125 112.71875 14.484375 C 112.71875 13.855469 112.882812 13.230469 113.234375 12.710938 C 113.753906 11.976562 114.382812 11.347656 115.144531 10.855469 C 116.289062 10.066406 117.296875 9.683594 118.171875 9.683594 C 119.042969 9.683594 119.859375 10.09375 120.625 10.9375 L 118.171875 12.875 C 117.679688 12.246094 116.753906 12.109375 116.125 12.601562 L 116.042969 12.683594 C 115.769531 12.847656 115.582031 13.09375 115.472656 13.394531 C 115.390625 13.609375 115.445312 13.855469 115.582031 14.046875 C 115.691406 14.183594 115.851562 14.292969 116.042969 14.292969 C 116.261719 14.320312 116.644531 14.210938 117.1875 13.964844 C 118.550781 13.394531 119.589844 13.066406 120.296875 12.957031 C 120.898438 12.847656 121.523438 12.902344 122.097656 13.148438 C 122.613281 13.367188 123.050781 13.746094 123.351562 14.210938 C 123.734375 14.757812 123.949219 15.410156 123.976562 16.09375 C 124.003906 16.800781 123.816406 17.484375 123.433594 18.085938 C 122.941406 18.820312 122.316406 19.449219 121.578125 19.941406 C 120.078125 20.976562 118.851562 21.414062 117.871094 21.25 C 116.808594 21.085938 115.933594 20.539062 115.308594 19.75 Z M 115.308594 19.75 "/>
</g>
</g>
</g>
</g>
</svg>
